<?xml version='1.0' encoding='utf-8'?>
<svg xmlns="http://www.w3.org/2000/svg" version="1.1" width="600px" height="976px" viewBox="0 0 600 976"> <g id="layer1"> <g style="fill:rgb(150,200,250); fill-opacity:1.0; stroke-linejoin: miter"> <path d="M227.37332,428.86258C227.26006,428.96252,227.16678,429.08908,227.16678,429.13577C227.16678,429.18906,227.12013,429.32233,227.06683,429.4356C227.01352,429.5555,226.9469,429.76874,226.91357,429.9153C226.86694,430.16187,226.84029,430.1885,226.55377,430.26178C226.38055,430.30176,226.2073,430.3551,226.16733,430.38174C226.134,430.40173,225.84084,430.4484,225.52768,430.4817C225.21452,430.515,224.92136,430.57495,224.87471,430.60828C224.82806,430.64825,224.61484,430.6949,224.39497,430.72153C224.18176,430.74152,223.86194,430.81482,223.68869,430.88812C223.51546,430.95474,223.26227,431.0147,223.11568,431.0147C222.97575,431.0147,222.7692,431.06137,222.6626,431.11465C222.42271,431.22794,221.77641,431.31454,221.54987,431.2546C221.45659,431.23462,221.35663,431.13464,221.30334,431.02136C221.11678,430.5683,220.70367,430.3884,220.05737,430.475C219.72421,430.52167,219.65091,430.5616,219.37106,430.86148C219.08456,431.15463,219.05124,431.22794,219.00461,431.58774C218.94464,432.14743,219.05792,432.68713,219.33775,433.14688C219.68423,433.7132,220.00406,433.94644,220.43048,433.94644C221.11678,433.94644,221.76974,433.52002,221.76974,433.06693C221.76974,432.74042,221.82971,432.68048,222.16287,432.68048C222.42271,432.68048,222.50934,432.72046,222.72256,432.91367C222.85582,433.0336,222.96909,433.1935,222.96909,433.26016C222.96909,433.32678,222.75587,433.60663,222.496,433.87982C221.96298,434.4395,221.59651,434.96588,221.37665,435.4789C221.33665,435.5722,221.27002,435.69214,221.23671,435.74542C221.19675,435.79877,221.13676,435.91867,221.09679,436.01196C221.0368,436.1519,220.69034,436.61832,220.47046,436.8515C220.43715,436.89148,220.27057,437.08472,220.104,437.27792C219.93742,437.47116,219.77084,437.6644,219.73087,437.70438C219.6709,437.771,218.79138,438.85706,218.65147,439.04364C218.62482,439.07697,218.4649,439.28348,218.305,439.49005C218.13843,439.69662,217.85857,440.08307,217.67201,440.34293C217.4921,440.60278,217.13898,441.05585,216.88577,441.34903C216.63925,441.64218,216.36606,441.98868,216.27277,442.1286C216.18616,442.26187,215.97961,442.52173,215.81302,442.70163C215.6398,442.88153,215.50653,443.06143,215.50653,443.09476C215.50653,443.1347,215.39326,443.30127,215.25334,443.4679C215.11342,443.63446,214.94019,443.861,214.87355,443.97424C214.76694,444.1475,214.42712,444.58057,214.12064,444.94037C214.07399,444.99365,213.93407,445.1869,213.80746,445.3735C213.35437,446.03976,213.20114,446.24634,212.86133,446.6794C212.66809,446.9193,212.50818,447.1525,212.50818,447.1858C212.50818,447.22577,212.3616,447.4057,212.17503,447.59225L211.84189,447.93207L211.21556,447.8921L210.58923,447.85876L210.41602,448.11197C210.32272,448.2519,210.24277,448.41846,210.24277,448.47842C210.24277,448.7316,209.76303,448.85822,208.58368,448.9182L207.73082,448.95816L207.60422,448.6983C207.4443,448.37848,206.9046,447.9587,206.56479,447.90543C206.23164,447.84543,205.50537,447.93207,205.37878,448.03867C205.32547,448.08533,205.21887,448.1386,205.13892,448.16528C204.61253,448.3252,204.32602,449.3713,204.5459,450.2908C204.70581,450.9504,204.89236,451.30353,205.23886,451.61005C205.61198,451.94318,205.8052,451.98984,206.63142,451.94986C207.391,451.91656,207.45764,451.94986,207.31772,452.3363C207.2844,452.4496,207.2311,452.7694,207.21109,453.0559C207.15112,453.78885,207.15112,453.7955,206.778,454.20193C206.59145,454.40182,206.39154,454.6284,206.32492,454.70166C206.11171,454.94153,205.70526,455.54788,205.5387,455.87436C205.4454,456.04758,205.32547,456.2275,205.27217,456.27414C205.21887,456.31412,205.1789,456.40073,205.1789,456.46735C205.1789,456.52734,205.11893,456.66058,205.04562,456.7539C204.97234,456.84714,204.91235,456.95377,204.91235,456.99374C204.91235,457.03372,204.8524,457.18033,204.77911,457.31357C204.70581,457.4535,204.64584,457.62674,204.64584,457.7C204.64584,457.77332,204.60587,457.89325,204.55258,457.96655C204.50592,458.03983,204.44595,458.21973,204.41931,458.36633C204.39264,458.50623,204.32602,458.7128,204.27272,458.81274C204.21942,458.9127,204.17944,459.1659,204.17278,459.37912C204.17278,459.59232,204.13947,459.94543,204.10614,460.16534C203.9329,461.3047,203.90625,461.8111,204.0062,462.1909C204.05951,462.39743,204.11948,462.7106,204.15279,462.89716C204.23276,463.45685,204.59921,464.12982,205.07227,464.59622C205.30548,464.82278,205.63197,465.0893,205.79189,465.18924C205.9518,465.28253,206.14502,465.40912,206.21164,465.46243C206.31827,465.5424,206.91792,466.38855,207.21109,466.87497C207.24442,466.9349,207.3577,467.11487,207.45096,467.27475C207.55092,467.43466,207.66418,467.69452,207.71083,467.86108C207.83743,468.34082,207.93736,468.41412,209.07674,468.9272C209.22333,468.9938,209.60312,469.16705,209.9296,469.32028C210.24942,469.47354,210.52928,469.59348,210.55592,469.59348C210.57593,469.59348,210.78912,469.68674,211.02234,469.80002C211.4621,470.01324,211.81523,470.37305,211.97514,470.77948C212.05511,470.9927,212.45488,471.39246,212.57481,471.39246C212.61479,471.39246,212.84799,471.5857,213.1012,471.8189C213.75417,472.41858,214.20724,472.65845,214.67365,472.65845L215.04013,472.65845L215.88632,473.43802C216.3594,473.86444,216.8458,474.31754,216.97238,474.43082C217.099,474.55075,217.27222,474.70398,217.35219,474.77728C217.49878,474.89722,218.74475,476.04324,218.97128,476.25647C219.08456,476.36975,219.8508,477.07602,220.31056,477.4958C220.47046,477.64236,220.89023,478.07547,221.23671,478.44858C221.7964,479.05493,222.51599,479.6346,223.63538,480.38754C223.68869,480.42084,223.90857,480.5741,224.1218,480.72067C224.335,480.86725,224.54156,480.9872,224.5882,480.9872C224.72812,480.9872,225.3611,481.24707,225.79419,481.48026C226.3539,481.7801,227.69983,482.7862,228.6393,483.5991C228.73926,483.6857,229.11903,484.00552,229.49216,484.3187C229.93192,484.69183,230.16513,484.9317,230.16513,485.0183C230.16513,485.0916,230.0452,485.29816,229.8986,485.4714C229.61209,485.82452,229.53214,486.03775,229.43219,486.7507C229.3589,487.24374,229.3789,487.57025,229.54547,488.583C229.67206,489.37592,229.85863,489.88898,230.07184,490.0289C230.23175,490.12885,230.26508,490.12216,230.65152,489.9689C231.01132,489.82898,231.13126,489.81567,231.58435,489.849C231.90417,489.87564,232.14404,489.9356,232.204,489.99557C232.25731,490.0489,232.35725,490.3154,232.42389,490.59525C232.49051,490.8684,232.57713,491.14825,232.61044,491.22156C232.71706,491.42145,232.7637,491.74792,232.69707,491.84122C232.61713,491.98114,232.07074,491.8679,231.55103,491.608C231.29785,491.4814,230.95801,491.36148,230.79144,491.33484C230.5116,491.29486,230.47162,491.3082,230.23175,491.54807C230.09184,491.688,229.95857,491.8679,229.93858,491.95447C229.88528,492.1477,229.72537,492.24103,229.21231,492.35428C228.99911,492.4076,228.75923,492.4942,228.67929,492.54752C228.57266,492.6208,228.33948,492.64743,227.7731,492.64743L227.00687,492.64743L226.5338,493.1405C226.28061,493.41367,225.9741,493.6802,225.85417,493.74017C225.7409,493.80014,225.60098,493.90677,225.54767,493.98004C225.49437,494.0533,225.26117,494.21326,225.02795,494.32654C224.49492,494.5997,224.34833,494.83292,224.54822,495.10608C224.80142,495.4459,224.84805,495.57916,224.76144,495.6858C224.72145,495.73907,224.63483,495.77905,224.5682,495.77905C224.36832,495.77905,224.1018,496.08554,224.1018,496.3121C224.1018,496.57196,224.03517,496.7052,223.66205,497.1583C223.21562,497.70465,223.18231,498.01114,223.55544,498.17108C223.6687,498.22437,223.76865,498.29767,223.76865,498.32434C223.76865,498.35764,223.68869,498.4909,223.59541,498.6175C223.4755,498.76407,223.42883,498.89734,223.45547,498.99063C223.55544,499.4104,223.71535,499.6969,224.03517,500.01672C224.47491,500.45648,224.46161,500.62973,223.98187,500.85626C223.68204,501.00284,223.6687,501.02283,223.67537,501.28934C223.67537,501.50256,223.72867,501.6225,223.88858,501.80905C224.06181,502.0023,224.1018,502.10223,224.1018,502.34875C224.1018,502.51532,224.16177,502.76187,224.23506,502.90845C224.32169,503.0817,224.36832,503.30157,224.36832,503.56143L224.36832,503.95456L224.90802,504.53424C225.43439,505.09393,225.45438,505.10727,225.60764,505.01398C225.75421,504.91403,225.76755,504.9207,226.01408,505.20053C226.31392,505.54034,226.64041,506.2866,226.5871,506.5065C226.5338,506.70636,226.66039,506.773,227.08682,506.773C227.47327,506.773,227.69983,506.85962,227.69983,507.0062C227.69983,507.0595,227.7731,507.17944,227.85306,507.2794L228.01297,507.4593L228.24619,507.31937C228.37946,507.2394,228.5127,507.1728,228.55267,507.1728C228.65262,507.1728,228.89915,507.59256,228.89915,507.76578C228.89915,507.98566,229.07239,508.00565,229.44553,507.8191C229.63875,507.7258,229.81198,507.65918,229.8453,507.67917C229.87195,507.69916,229.93858,507.85242,229.98523,508.01898C230.03853,508.19223,230.13846,508.37213,230.21176,508.41876C230.33838,508.50537,230.37834,508.47873,230.6915,508.13226C231.07129,507.71915,231.10461,507.71915,231.37112,508.15225C231.55103,508.4454,231.76425,508.43207,231.84421,508.13226C231.91083,507.8724,232.03743,507.8191,232.37724,507.91238C232.75703,508.01233,232.83699,507.96567,232.817,507.62585L232.797,507.33936L233.16347,507.35266C233.36337,507.35266,233.62988,507.37933,233.74982,507.40598C233.98969,507.4593,234.00302,507.426,233.85643,507.13947C233.76315,506.95956,233.76315,506.93958,233.86975,506.85962C234.07631,506.713,234.33615,506.76633,234.73593,507.03287L235.12906,507.29938L235.16904,507.0662C235.22235,506.7397,235.36227,506.61307,235.61545,506.67307C235.72873,506.69305,235.85532,506.75967,235.90196,506.813C236.05522,506.99954,236.30174,506.84628,236.3817,506.49982C236.42169,506.33325,236.88809,506.04007,237.11462,506.04007C237.2812,506.04007,237.29453,505.94678,237.1546,505.73358C236.95473,505.4271,236.98804,505.32715,237.31451,505.27383C237.46776,505.2538,237.68765,505.21387,237.80092,505.20053C237.9142,505.18054,238.16072,505.0473,238.35394,504.9007C238.54051,504.76077,238.73375,504.64084,238.77371,504.64084C238.81369,504.64084,238.9203,504.57422,239.00693,504.49426L239.16017,504.35434L239.32675,504.5076C239.42003,504.5942,239.49332,504.69415,239.49332,504.73413C239.49332,504.88736,240.686,507.25272,241.0458,507.81244C241.13908,507.96567,241.34563,508.32547,241.49222,508.612C241.64548,508.90515,241.8387,509.21164,241.91199,509.30493C242.06523,509.47818,242.10522,509.5448,242.38506,510.0845C242.55164,510.40433,243.09134,510.9707,243.22461,510.9707C243.31122,510.9707,244.03082,512.48315,244.24405,513.10284C244.33733,513.37604,244.46391,513.8291,244.52388,514.1023C244.6305,514.5687,244.83705,515.215,245.0636,515.76807C245.11023,515.89465,245.2435,516.25446,245.3501,516.5676C246.16965,518.95294,246.123,518.8463,246.74266,519.7125C247.06248,520.16565,247.44894,520.73193,247.59552,520.9652L247.87538,521.3983L247.91534,522.76416C247.942,523.5171,248.00197,524.44324,248.06194,524.8297C248.14856,525.44275,248.20851,525.85583,248.49503,527.59485C248.52834,527.8147,248.58832,528.2478,248.62163,528.56104C248.6816,529.1207,248.8082,529.88025,248.98808,530.7931C249.16798,531.6793,249.2213,532.3056,249.2213,533.5116C249.2213,534.1779,249.25461,534.99084,249.28793,535.31726C249.34789,535.8103,249.34123,535.99023,249.24796,536.38336C249.02141,537.3695,249.0414,537.32947,248.77487,537.44946C248.32846,537.6427,247.54889,537.7693,246.38953,537.8159C245.33011,537.86255,245.21017,537.88257,244.5572,538.1024C244.17075,538.23566,243.73099,538.3623,243.57774,538.3889C243.13132,538.4622,243.07135,538.5755,243.0647,539.395L243.05803,540.108L243.32454,540.1946C243.47113,540.2479,243.64436,540.3146,243.711,540.3545C243.83759,540.4278,244.26402,540.38116,244.32399,540.2879C244.34398,540.2546,244.4839,540.2146,244.64381,540.1879C244.79706,540.16125,245.0769,540.09467,245.27014,540.0414C245.5833,539.9414,245.6366,539.9414,245.90312,540.0414C246.06303,540.1013,246.36954,540.1746,246.58942,540.1946C246.8093,540.22125,247.10246,540.28125,247.24904,540.3345C247.44228,540.4011,248.06194,540.42114,249.8876,540.42114L252.27295,540.42114L252.61942,540.2412C253.01921,540.03467,253.11914,539.9014,253.18578,539.4883C253.21243,539.3218,253.27907,539.10187,253.33237,538.99524C253.40565,538.84863,253.41899,538.70874,253.38568,538.4289C253.31238,537.9092,253.31238,536.8764,253.37901,533.1251C253.42564,530.28674,253.41899,529.6471,253.31905,528.2279C253.20578,526.66205,253.20578,526.2556,253.3257,524.46326C253.35236,524.0768,253.33904,523.7637,253.28572,523.59705C253.24576,523.45044,253.18578,522.93744,253.15913,522.45105C253.13248,521.9646,253.07916,521.53156,253.0392,521.48486C253.00589,521.43823,252.89261,521.15845,252.79266,520.86523C252.69272,520.5721,252.57944,520.2722,252.53947,520.20557C252.46617,520.0657,252.173,519.0796,252.09305,518.6931C252.0664,518.5665,252.01976,518.41327,251.98643,518.3666C251.95313,518.31995,251.92648,517.9735,251.91982,517.60706C251.90648,517.1206,251.85985,516.8075,251.75323,516.46765C251.60666,516.02795,251.59999,515.90796,251.61331,514.2156C251.62663,512.32996,251.61996,512.25665,251.2735,511.30383C251.18022,511.0573,251.1269,510.69086,251.10693,510.19113L251.06696,509.4515L251.33347,509.12503C251.54669,508.86517,252.08638,507.87906,252.08638,507.7458C252.08638,507.7258,252.26628,507.4193,252.48616,507.0595C252.92593,506.34656,252.90593,506.38657,253.17912,505.9668C253.27907,505.80685,253.43231,505.56702,253.51894,505.4404C253.59889,505.3138,253.75879,505.04062,253.87207,504.84073C253.98534,504.64084,254.2452,504.30768,254.45175,504.10782C254.75159,503.81464,256.45065,501.66248,256.71716,501.23602C256.75714,501.18274,256.87708,500.9895,256.9837,500.8096C257.2569,500.36987,257.47675,500.11,257.57672,500.11C257.63666,500.11,257.67664,500.2899,257.70996,500.683C257.7566,501.36264,257.80988,501.47592,258.0964,501.56918C258.53616,501.7091,260.2019,501.79575,261.0481,501.7158C262.00757,501.62915,262.454,501.50256,262.8338,501.21606C262.9937,501.09613,263.26025,500.94287,263.43347,500.87625C263.6067,500.8096,263.7666,500.72968,263.78662,500.703C263.8066,500.6697,263.89322,500.64304,263.97318,500.64304C264.05978,500.64304,264.16638,500.5964,264.21304,500.5431C264.2597,500.4898,264.33966,500.44315,264.3863,500.44315C264.63947,500.44315,264.35297,499.61694,263.7733,498.6708C263.63336,498.4309,263.31354,497.92456,262.9804,497.37817C262.8538,497.17828,262.75385,496.9784,262.7472,496.93176C262.7472,496.8851,262.6739,496.67856,262.5806,496.46536L262.40735,496.0789L262.41403,493.91342C262.42737,491.94785,262.41403,491.7013,262.2941,491.2482C262.2208,490.97504,262.0942,490.61523,262.01425,490.45532C261.8477,490.12216,261.8477,490.1355,262.30743,488.81622C262.50067,488.25653,263.10034,486.9839,263.2802,486.7507C263.34686,486.66406,263.61337,486.19766,263.7333,485.9511C263.78662,485.83786,263.86658,485.7046,263.9132,485.6513C263.95984,485.598,264.10645,485.26486,264.24634,484.91837C264.4929,484.2987,264.69943,483.97223,265.1059,483.53247C265.33908,483.28592,265.6056,483.25928,266.21194,483.4192C266.9049,483.60574,267.2114,483.53247,267.2114,483.18597C267.2114,483.0927,267.27136,482.89282,267.34467,482.7529C267.4646,482.51303,267.4779,482.37976,267.4646,481.35367C267.45123,480.42752,267.4646,480.18097,267.5512,480.02106C267.61118,479.90778,267.73776,479.6746,267.83105,479.4947C268.10425,478.9883,268.6106,477.0427,268.81052,475.69012C268.8438,475.50354,268.91046,475.23703,268.96375,475.09045C269.117,474.69067,269.16364,474.01105,269.08368,473.45135C269.0437,473.17816,268.99707,472.7051,268.98376,472.3919C268.96375,472.07877,268.92377,471.69232,268.8838,471.52573C268.79718,471.11264,268.7772,470.53296,268.8438,469.88663C268.89047,469.42023,268.87714,469.32028,268.7772,469.16705C268.70392,469.06042,268.64392,468.82724,268.63727,468.60733C268.62396,468.39417,268.5973,468.06766,268.57065,467.87442C268.544,467.6079,268.5573,467.48795,268.6306,467.408C268.76385,467.2481,268.9571,466.4019,268.96375,465.94214C268.96375,465.73563,268.9438,465.3625,268.91046,465.1226C268.87048,464.7628,268.8838,464.60287,268.99707,464.2564C269.16364,463.73672,269.25024,463.05707,269.35022,461.53125C269.3902,460.8916,269.43683,460.3519,269.44348,460.34525C269.51678,460.2653,269.75665,460.4452,269.89658,460.68506C269.98987,460.84494,270.4096,461.3047,270.83606,461.71115L271.60898,462.45743L271.60898,463.01044C271.60898,463.53015,271.6223,463.57678,271.8755,464.00323C272.09534,464.37634,272.22864,464.50958,272.64172,464.78946C272.92157,464.976,273.27472,465.1559,273.42798,465.19586C273.58124,465.23587,273.84106,465.3092,274.00763,465.3558C274.594,465.5357,275.84662,465.14258,276.57288,464.56293C276.9394,464.2631,278.58514,463.16367,279.27142,462.75055C279.5846,462.56403,279.9444,462.3508,280.07098,462.2775C280.19757,462.19757,280.47742,462.04428,280.6906,461.931C281.19702,461.6645,282.29642,460.85162,282.63623,460.49847C283.1626,459.95212,283.669,459.37244,283.669,459.32578C283.669,459.29245,283.78894,459.02594,283.9355,458.71948C284.32196,457.92654,284.55518,456.92047,284.4952,456.34744C284.44858,455.8877,284.36194,455.65445,284.10208,455.30133C284.02216,455.18808,283.9355,455.04816,283.91553,454.9882C283.89554,454.92157,283.68896,454.73495,283.46243,454.5684L283.04932,454.26193L282.443,454.30853C281.77002,454.34854,281.6701,454.38184,280.91052,454.7483C280.61734,454.88824,280.34415,455.00153,280.29083,455.00153C280.05765,455.00153,279.7978,454.77496,279.57123,454.37515C279.44464,454.14197,279.27142,453.8821,279.1848,453.78885C279.10486,453.70224,278.91827,453.48233,278.77835,453.31577C278.62512,453.12253,278.35858,452.91602,278.11206,452.78275C277.73892,452.5895,277.69894,452.54288,277.599,452.23636C277.539,452.0498,277.46576,451.69,277.4391,451.43683C277.4124,451.17697,277.35248,450.89044,277.2992,450.7905C277.24585,450.69055,277.17258,450.464,277.13925,450.2841C277.0526,449.891,276.86606,449.57782,276.65283,449.45792C276.4796,449.36462,275.28693,448.56503,274.80722,448.21857C273.61453,447.35907,273.71448,447.459,273.0415,446.4995C272.89493,446.2863,272.47516,445.81992,272.1087,445.4601C271.28247,444.64056,270.5762,444.22745,269.65005,444.01422C267.6645,443.56113,267.07147,443.5545,265.94543,443.97424C265.81882,444.02756,265.499,444.1275,265.23248,444.20078C264.70612,444.35406,264.35962,444.5939,263.54675,445.3735C263.27356,445.63336,262.8338,446.01978,262.56726,446.22635C262.1275,446.5728,262.08087,446.63275,261.94763,447.05255C261.82104,447.45233,261.22803,448.4318,260.88153,448.83823C260.8149,448.91156,260.75494,449.00482,260.74164,449.0448C260.72827,449.07813,260.35516,449.64447,259.9154,450.2908C259.1225,451.47015,258.82935,451.94318,258.37625,452.83606C258.24298,453.08923,258.06976,453.42236,257.9898,453.569C257.9032,453.71555,257.72995,454.02875,257.60333,454.2686C257.47675,454.50845,257.30353,454.8083,257.23022,454.93488C257.15027,455.06146,257.00366,455.33466,256.8904,455.53455C256.7838,455.73447,256.61725,456.03427,256.52393,456.20087C256.43066,456.36743,256.29742,456.6073,256.23077,456.7339C256.16412,456.86047,256.03088,457.10037,255.9376,457.26694C255.84431,457.4335,255.62444,457.8333,255.4512,458.16644C255.27797,458.49292,255.0714,458.81274,254.99146,458.86603C254.85818,458.95932,254.51839,459.10593,253.6855,459.4124C253.39233,459.5257,251.20021,460.45853,250.02086,460.9782C249.89426,461.0315,249.70103,461.11816,249.58777,461.1648C249.48116,461.21808,249.16133,461.358,248.88814,461.4846C248.04195,461.87106,246.88258,462.30414,246.28958,462.46408C245.97643,462.54404,245.6366,462.65063,245.52335,462.69727C245.41673,462.74393,244.97696,462.8905,244.5572,463.02374C243.87091,463.2303,243.68434,463.26364,242.7915,463.29697C242.24515,463.31693,240.8326,463.3036,239.6599,463.2703C237.83424,463.21698,237.44778,463.19034,236.96138,463.06372C236.64821,462.9838,236.26176,462.89716,236.10187,462.85718C235.94194,462.82388,235.72206,462.75055,235.6088,462.69727C235.49553,462.64398,235.36893,462.59732,235.32228,462.59732C235.27565,462.59732,234.69595,462.41742,234.02966,462.19757C233.22345,461.931,232.73038,461.73114,232.52382,461.58453C231.99745,461.19812,231.4844,460.785,230.73149,460.13202L229.99854,459.49902L229.33224,459.5057C228.90582,459.51236,228.51938,459.55234,228.26617,459.6323C227.79309,459.77222,226.9469,459.93216,226.66705,459.93216C226.47383,459.93216,225.88083,459.51236,225.34778,459.01266C225.16788,458.83942,223.86194,457.9066,223.48215,457.68002C223.37553,457.62006,223.04239,457.4135,222.73589,457.22028C222.42938,457.02704,221.58984,456.55402,220.87024,456.16754C219.61093,455.49457,219.10455,455.1481,218.29166,454.38184C217.94519,454.06204,217.90521,453.93542,218.09177,453.74884C218.27835,453.5623,219.07123,452.5562,219.85747,451.50345C220.05069,451.2436,220.41718,450.72388,220.67035,450.3374C220.92355,449.95096,221.15009,449.62448,221.17007,449.6045C221.19006,449.58447,221.34998,449.34464,221.52988,449.07144C221.70978,448.79825,221.91634,448.4851,221.98962,448.3718C222.06958,448.26523,222.24948,447.99203,222.39607,447.77216C222.54266,447.55225,222.6759,447.35907,222.70258,447.33908C222.72922,447.31906,222.78918,447.22577,222.8425,447.1325C222.8958,447.03256,223.35555,446.3263,223.86859,445.5667C224.38164,444.80048,224.81473,444.1408,224.82806,444.10748C224.84138,444.06754,224.948,443.92093,225.06128,443.781C225.25449,443.53452,225.54767,443.09476,225.82086,442.64835C225.88083,442.54172,226.03407,442.3285,226.154,442.16858C226.26727,442.002,226.36722,441.8554,226.36722,441.83542C226.36722,441.80212,227.17345,440.60278,227.24008,440.54282C227.26006,440.52283,227.37332,440.34958,227.49327,440.1497C227.6132,439.9498,227.75311,439.74323,227.80643,439.68994C227.85974,439.63666,227.95967,439.48337,228.03296,439.33682C228.10626,439.19687,228.2062,439.05695,228.2595,439.0303C228.31282,439.00363,228.43274,438.8304,228.52603,438.64383C228.62598,438.46393,228.72592,438.29736,228.75923,438.27737C228.78589,438.25742,228.89915,438.09085,229.00577,437.9109C229.45885,437.14468,229.61209,436.9115,229.80533,436.68494C230.33838,436.05862,231.43109,434.4395,231.43109,434.27957C231.43109,434.08633,231.70427,433.46002,231.91748,433.17355C232.03743,433.0136,232.204,432.77374,232.2973,432.63385C232.46387,432.3806,233.3567,431.4878,233.44333,431.4811C233.46997,431.4811,233.62323,431.35455,233.78314,431.1946C233.94305,431.04138,234.15627,430.86148,234.24954,430.7948C234.47609,430.64157,234.49608,430.2951,234.29619,430.1152C234.16959,430.00192,234.12294,429.9953,233.8764,430.06857C233.72318,430.1152,233.39001,430.18182,233.13016,430.22183C232.87695,430.25516,232.55048,430.32843,232.41055,430.38174C232.27728,430.43506,232.05075,430.4817,231.91083,430.4817C231.77756,430.4817,231.47107,430.54163,231.24454,430.61496C231.01132,430.68823,230.71815,430.7482,230.59822,430.7482C230.47162,430.7482,230.29839,430.77487,230.20511,430.81482C230.0452,430.87482,230.01855,430.8548,229.8653,430.61496C229.77867,430.475,229.67871,430.2285,229.65875,430.06857C229.59212,429.68213,229.39221,429.30234,229.05908,428.96252L228.77922,428.68268L228.17957,428.68268C227.61986,428.68268,227.56656,428.69598,227.37332,428.86258 Z M215.02014,459.87216C215.58649,460.17865,215.88632,460.21194,216.59927,460.0654C216.80582,460.0254,217.0257,460.00543,217.08566,460.0321C217.15228,460.05206,217.32553,460.22528,217.4721,460.41187C217.61871,460.59842,218.09845,461.19144,218.5382,461.73782C218.97795,462.2775,219.39105,462.79056,219.45102,462.8705C219.72421,463.22363,220.91022,464.66284,221.32333,465.13593C221.74976,465.629,221.78973,465.7156,222.03627,466.46854C222.18286,466.91495,222.3028,467.38138,222.3028,467.50797C222.3028,467.6479,222.33612,467.72784,222.3894,467.72784C222.44272,467.72784,222.54266,467.80112,222.62262,467.88107C222.7492,468.02103,222.7692,468.10098,222.75587,468.51407C222.73589,468.9338,222.75587,469.00046,222.8958,469.15372C222.98242,469.247,223.10901,469.34027,223.17563,469.36026C223.24226,469.38028,223.31555,469.4669,223.34222,469.54684C223.40219,469.75336,223.56876,469.92664,223.70203,469.92664C223.76865,469.92664,224.08847,470.15317,224.4083,470.42636C225.00797,470.93274,225.561,471.2459,226.10736,471.39246C226.26727,471.43246,226.50714,471.57236,226.63374,471.69232C226.76035,471.81226,227.0002,471.97882,227.16678,472.05878C227.33334,472.1454,227.58655,472.292,227.73312,472.3919C228.37946,472.8317,229.10571,473.1049,229.82532,473.16486C230.10516,473.1915,230.44498,473.25146,230.59155,473.2981C230.91805,473.41803,231.15793,473.41803,231.43109,473.2981C231.61766,473.21817,231.6843,473.2248,231.95746,473.33142C233.09018,473.7645,233.6965,473.9844,233.89641,474.02438C234.02301,474.05103,234.16959,474.09766,234.22955,474.13098C234.34282,474.1976,235.02246,474.43747,235.32895,474.51743C235.44221,474.55075,235.7687,474.684,236.06189,474.81726C237.44778,475.4569,239.3534,476.05658,241.37228,476.48965C241.63881,476.54297,242.08524,476.65625,242.35841,476.72955C242.63159,476.8095,243.09134,476.89612,243.38452,476.92276C243.69768,476.9561,243.93088,477.01605,243.97086,477.06937C244.00417,477.116,244.01083,477.32922,243.99084,477.53577C243.91756,478.25537,244.20407,478.83505,244.7904,479.14154C245.3501,479.43472,245.51668,479.4547,245.97643,479.32144C246.21628,479.25482,246.46948,479.1682,246.52945,479.1349C246.70935,479.03494,247.12912,479.26813,247.18242,479.4947C247.2224,479.64127,247.17575,479.72787,246.84262,480.08102C246.63606,480.3009,246.40285,480.53412,246.33623,480.5874C246.26292,480.64072,245.98975,480.88058,245.72989,481.12045C245.41006,481.40695,245.13022,481.59354,244.89702,481.68018C244.31067,481.88672,244.13077,482.09326,243.95753,482.75955C243.85759,483.16602,243.32454,483.6524,242.97806,483.6524C242.67157,483.6524,242.09189,484.35202,242.09189,484.71848C242.09189,485.07162,241.77206,485.30484,241.28568,485.31815C240.43947,485.33148,238.96028,485.2315,238.68044,485.13824C238.42058,485.0583,238.24068,484.9117,237.661,484.3054C237.27455,483.89893,236.96138,483.53912,236.96138,483.5058C236.96138,483.46582,236.83478,483.2926,236.6882,483.1127C236.42169,482.79288,236.40836,482.7862,236.06189,482.79288C235.72873,482.8062,235.68875,482.7862,235.24234,482.4264C234.98247,482.21985,234.74927,482.05328,234.72928,482.05328C234.70264,482.05328,234.60269,481.99332,234.5094,481.92C234.22955,481.70682,233.62988,481.32037,233.26343,481.12714C232.63708,480.7873,231.3578,479.8678,230.66486,479.26147C230.44498,479.06827,229.97858,478.69513,229.63208,478.44193C228.98578,477.9622,228.03296,477.03604,227.8664,476.72955C227.75978,476.52298,227.51993,476.33643,227.03351,476.0899C226.60709,475.87668,226.06738,475.4769,225.60098,475.0438C225.42108,474.87057,225.24118,474.72397,225.21452,474.72397C225.18121,474.72397,224.95465,474.60403,224.7148,474.4641C224.46826,474.3242,223.83527,473.97772,223.30225,473.70456C222.7692,473.43137,221.98962,473.0316,221.56985,472.8117C220.87692,472.4519,219.87747,471.9455,218.90466,471.4658C218.06512,471.046,216.79916,470.37305,216.6992,470.27975C216.58594,470.1865,216.58594,470.15317,216.65924,469.0271C216.67255,468.78058,216.65924,468.76062,216.49265,468.74063C216.37273,468.7273,216.24612,468.78058,216.08621,468.92053C215.853,469.12704,215.73973,469.16037,215.54651,469.0871C215.46655,469.05377,215.43991,468.95383,215.43991,468.68732C215.43991,468.3675,215.4199,468.31418,215.28,468.2542C215.1534,468.19424,215.08676,468.20093,214.96683,468.28754C214.7936,468.40744,214.47377,468.42746,214.40714,468.3275C214.38715,468.28754,214.24057,468.22754,214.08066,468.1876C213.8208,468.12097,213.7808,468.08096,213.58093,467.67456C213.10785,466.72174,212.57481,466.05542,211.60867,465.23587C211.20224,464.8894,210.82245,464.24307,210.88907,463.99655C210.90906,463.9299,211.02234,463.82333,211.14893,463.76334C211.60867,463.5435,213.17448,461.77777,213.44766,461.1648C213.48099,461.0915,213.60092,460.89825,213.70752,460.7317C213.81413,460.56512,213.99402,460.24527,214.1073,460.0121C214.22058,459.78552,214.3605,459.59897,214.4138,459.59897C214.4671,459.59897,214.7403,459.7256,215.02014,459.87216 Z M210.02289,465.14258C210.09619,465.2292,210.24277,465.4491,210.34938,465.64233C210.50928,465.92883,210.52261,466.00214,210.44931,466.08875C210.40268,466.14868,210.2761,466.19537,210.16948,466.19537C209.99625,466.19537,209.96957,466.16205,209.84299,465.73563C209.68974,465.2092,209.67642,464.996,209.79636,464.996C209.84966,464.996,209.94958,465.06262,210.02289,465.14258 Z"/> </g> </g> </svg>